<svg id="Capa_1" enable-background="new 0 0 512 512" height="512" viewBox="0 0 512 512" width="512" xmlns="http://www.w3.org/2000/svg"><g><path d="m421 22.5h-30v482h30c16.568 0 30-13.431 30-30v-422c0-16.569-13.432-30-30-30z" fill="#ffcf87"/><path d="m421 474.5-135-196 135-196v-30c0-16.569-13.432-30-30-30h-300c-16.569 0-30 13.431-30 30v422c0 16.569 13.431 30 30 30h300c16.568 0 30-13.431 30-30z" fill="#ffea75"/><path d="m391 474.5h30v-392h-30l-105 195.638z" fill="#defffd"/><path d="m391 474.5h-300v-392h300v270l-30 46 30 46z" fill="#fff"/><path d="m331 412.5 60-30v-30h-30z" fill="#fa3c45"/><path d="m121 352.5v30l30 32h210v-62z" fill="#ff6161"/><path d="m361 444.5h30v-62h-30l-75 31z" fill="#aafaf5"/><path d="m211 382.5h-90v62h90l45-31z" fill="#ffea75"/><path d="m211 382.5h150v62h-150z" fill="#defffd"/><path d="m286 52.5h45v75h-45z" fill="#5fc2b7"/><path d="m256 7.5c-24.853 0-45 20.147-45 45h-30v75h120v-75c0-24.853-20.147-45-45-45zm0 60c-8.284 0-15-6.716-15-15s6.716-15 15-15 15 6.716 15 15-6.716 15-15 15z" fill="#69d6ca"/><path d="m331 112.5h-30l30 30h30c0-16.569-13.432-30-30-30z" fill="#69d6ca"/><path d="m301 112.5h-120c-16.569 0-30 13.431-30 30h180c0-16.569-13.432-30-30-30z" fill="#87ede7"/><path d="m300.732 236.787s-25.792-37.109-44.732-64.282v149.995c30.099 0 54.5-24.421 54.5-54.545 0-11.593-3.624-22.332-9.768-31.168z" fill="#fa3c45"/><path d="m276.109 236.787s-11.594-37.109-20.109-64.282c-.003-.005-44.715 64.282-44.715 64.282-6.161 8.836-9.785 19.576-9.785 31.168 0 30.125 24.4 54.545 54.5 54.545 13.531 0 24.5-24.421 24.5-54.545 0-11.593-1.629-22.332-4.391-31.168z" fill="#ff6161"/><path d="m256 75c12.407 0 22.5-10.093 22.5-22.5s-10.093-22.5-22.5-22.5-22.5 10.093-22.5 22.5 10.093 22.5 22.5 22.5zm0-30c4.136 0 7.5 3.364 7.5 7.5s-3.364 7.5-7.5 7.5-7.5-3.364-7.5-7.5 3.364-7.5 7.5-7.5z"/><path d="m421 15h-128.308c-9.472-9.27-22.423-15-36.692-15s-27.22 5.73-36.692 15h-128.308c-20.678 0-37.5 16.822-37.5 37.5v422c0 20.678 16.822 37.5 37.5 37.5h330c20.678 0 37.5-16.822 37.5-37.5v-422c0-20.678-16.822-37.5-37.5-37.5zm-165 0c20.678 0 37.5 16.822 37.5 37.5 0 4.142 3.358 7.5 7.5 7.5h22.5v45h-135v-45h22.5c4.142 0 7.5-3.358 7.5-7.5 0-20.678 16.822-37.5 37.5-37.5zm75 105c9.778 0 18.12 6.27 21.215 15h-192.43c3.095-8.73 11.437-15 21.215-15zm112.5 354.5c0 12.407-10.093 22.5-22.5 22.5h-330c-12.407 0-22.5-10.093-22.5-22.5v-422c0-12.407 10.093-22.5 22.5-22.5h117.583c-2.223 4.666-3.787 9.704-4.548 15h-23.035c-4.142 0-7.5 3.358-7.5 7.5v22.5h-82.5c-4.142 0-7.5 3.358-7.5 7.5v240c0 4.142 3.358 7.5 7.5 7.5s7.5-3.358 7.5-7.5v-232.5h75v15.753c-17.095 3.485-30 18.637-30 36.747 0 4.142 3.358 7.5 7.5 7.5h210c4.142 0 7.5-3.358 7.5-7.5 0-18.109-12.905-33.262-30-36.747v-15.753h75v377h-315v-114.5c0-4.142-3.358-7.5-7.5-7.5s-7.5 3.358-7.5 7.5v122c0 4.142 3.358 7.5 7.5 7.5h330c4.142 0 7.5-3.358 7.5-7.5v-392c0-4.142-3.358-7.5-7.5-7.5h-82.5v-22.5c0-4.142-3.358-7.5-7.5-7.5h-23.034c-.761-5.296-2.325-10.334-4.548-15h117.582c12.407 0 22.5 10.093 22.5 22.5z"/><path d="m121 452h270c4.142 0 7.5-3.358 7.5-7.5v-92c0-4.142-3.358-7.5-7.5-7.5h-270c-4.142 0-7.5 3.358-7.5 7.5v92c0 4.142 3.358 7.5 7.5 7.5zm7.5-62h75v47h-75zm90 47v-47h165v47zm165-77v15h-255v-15z"/><path d="m256 330c34.187 0 62-27.833 62-62.045 0-12.737-3.842-24.995-11.109-35.448 0 0-25.798-37.119-44.741-64.295-1.403-2.012-3.7-3.211-6.153-3.211-2.458.001-4.756 1.203-6.157 3.218l-44.707 64.279c-7.283 10.445-11.133 22.706-11.133 35.457 0 34.212 27.813 62.045 62 62.045zm-38.558-88.931 38.56-55.442c17.915 25.719 38.571 55.439 38.571 55.44 5.513 7.929 8.427 17.226 8.427 26.888 0 25.941-21.084 47.045-47 47.045s-47-21.104-47-47.045c0-9.668 2.917-18.962 8.442-26.886z"/></g></svg>